<svg width="600" height="600" viewBox="0 0 600 600" fill="none" xmlns="http://www.w3.org/2000/svg">
<path d="M228.8 406C229.2 404.89 229.6 403.74 230.01 402.56C229.61 403.71 229.2 404.86 228.8 406Z" fill="white"/>
<path d="M190.74 311.2C177.153 317.22 163.969 324.111 151.27 331.83C158.818 326.858 166.658 322.347 174.75 318.32C184.074 313.667 193.637 309.512 203.4 305.87C199.187 307.55 194.967 309.327 190.74 311.2Z" fill="white"/>
<path d="M239.34 307.1C238.63 345.01 232.27 379.63 221.94 407.17C218.607 405.477 215.333 403.7 212.12 401.84C187.288 387.426 165.717 368.017 148.77 344.84L146.13 341.23C173.413 324.052 202.939 310.726 233.87 301.63C235.65 303.46 237.48 305.3 239.34 307.1Z" fill="white"/>
<path d="M236.05 381.9C236.45 380.29 236.84 378.63 237.23 376.9C236.843 378.627 236.45 380.293 236.05 381.9Z" fill="white"/>
<path d="M241.55 353.91C241.8 352.27 242.03 350.6 242.26 348.91C242 350.61 241.8 352.27 241.55 353.91Z" fill="white"/>
<path d="M245.3 312.68C244.82 325.77 243.75 337.75 242.3 348.62C243.814 336.6 244.715 324.511 245 312.4L245.24 312.62C245.256 312.62 245.271 312.626 245.282 312.638C245.294 312.649 245.3 312.664 245.3 312.68Z" fill="white"/>
<path d="M134.93 305.05C136.21 242.91 152.29 188.54 175.59 157.36V157.79C175.59 157.79 136.66 206 134.9 318.63C134.82 314.14 134.84 309.62 134.93 305.05Z" fill="white"/>
<path d="M209.86 42.29C189.399 73.5956 177.662 109.794 175.86 147.15C149.41 176.67 130.7 234.78 129.31 302C129.24 305.46 129.21 308.89 129.25 312.3C106.534 265.359 102.209 211.616 117.128 161.648C132.046 111.679 165.127 69.1032 209.86 42.3V42.29Z" fill="white"/>
<path d="M402.21 365H402.41L401.51 365.61C398.988 367.691 396.358 369.637 393.63 371.44C380.73 380.07 353 395.54 307 406C285.036 410.895 262.726 414.077 240.27 415.52" fill="white"/>
<path d="M491.75 336C441.67 412.4 345.48 449 255 420.69C272.44 419.322 289.744 416.573 306.75 412.47C350.24 402.06 387.75 384.26 413.86 363.63C441.401 359.686 467.88 350.293 491.75 336Z" fill="white"/>
<path d="M229.75 297.19C184.63 310.19 157.14 327.1 143.51 337.28C140.503 332.74 137.667 328.097 135 323.35L134.85 323.09C134.85 321.59 134.85 320.09 134.9 318.63C136.66 205.98 175.59 157.79 175.59 157.79C175.884 209.336 195.166 258.966 229.75 297.19Z" fill="white"/>
<path d="M402.21 365C402.08 365.12 401.85 365.32 401.52 365.58C398.998 367.661 396.368 369.607 393.64 371.41C380.73 380.07 353 395.54 307 406C285.036 410.894 262.726 414.077 240.27 415.52L237.74 414.52C234.32 413.12 230.957 411.637 227.65 410.07L227.33 409.92C227.334 409.9 227.334 409.88 227.33 409.86C227.8 408.64 228.28 407.36 228.76 406.04C229.16 404.93 229.56 403.78 229.97 402.6C231.47 398.19 232.97 393.3 234.46 387.91C234.87 386.42 235.27 384.91 235.67 383.32C235.78 382.87 235.89 382.42 236.01 381.97C236.41 380.36 236.8 378.7 237.19 376.97C237.93 373.737 238.637 370.36 239.31 366.84C239.56 365.54 239.81 364.23 240.04 362.89C240.56 360.003 241.05 357.02 241.51 353.94C241.76 352.3 241.99 350.63 242.22 348.94C242.22 348.84 242.22 348.75 242.22 348.65C243.67 337.78 244.74 325.8 245.22 312.71C284.993 348.144 336.77 367.096 390.02 365.71C394.133 365.57 398.197 365.333 402.21 365Z" fill="white"/>
<path d="M301.65 98L307.39 75.65L313.73 98.18C314.178 99.77 315.02 101.221 316.179 102.398C317.339 103.574 318.777 104.439 320.36 104.91L343.5 111.83L320.84 118.77C319.311 119.24 317.92 120.076 316.787 121.205C315.655 122.334 314.814 123.723 314.34 125.25L307.34 147.94L301.21 125.72C300.772 124.131 299.941 122.679 298.792 121.497C297.644 120.315 296.216 119.443 294.64 118.96L271.23 111.76L294.88 104.98C296.519 104.507 298.005 103.614 299.193 102.39C300.38 101.166 301.227 99.6524 301.65 98Z" fill="white"/>
<path d="M427.63 155.48L432.2 137.68L437.25 155.62C437.608 156.886 438.279 158.041 439.202 158.978C440.125 159.915 441.27 160.603 442.53 160.98L461 166.5L443 172.03C441.782 172.399 440.674 173.062 439.773 173.96C438.871 174.858 438.204 175.964 437.83 177.18L432.24 195.26L427.35 177.56C427.001 176.295 426.338 175.138 425.424 174.196C424.51 173.254 423.374 172.557 422.12 172.17L403.47 166.44L422.31 161.04C423.601 160.651 424.77 159.935 425.702 158.961C426.635 157.986 427.299 156.787 427.63 155.48Z" fill="white"/>
<path d="M351.37 227.58L359.68 195.26L368.84 227.83C369.488 230.13 370.707 232.229 372.384 233.932C374.061 235.635 376.14 236.886 378.43 237.57L411.89 247.57L379.12 257.57C376.91 258.246 374.899 259.453 373.263 261.084C371.626 262.715 370.413 264.722 369.73 266.93L359.58 299.8L350.71 267.66C350.074 265.365 348.871 263.267 347.211 261.559C345.55 259.851 343.487 258.59 341.21 257.89L307.36 247.48L341.55 237.67C343.925 236.992 346.081 235.703 347.804 233.933C349.527 232.163 350.756 229.973 351.37 227.58Z" fill="white"/>
<path d="M92.6501 509C92.6434 509.101 92.6266 509.202 92.6 509.3C92.5775 509.533 92.5775 509.767 92.6 510C92.5996 512.336 93.0057 514.654 93.8001 516.85C94.5875 519.038 95.7555 521.069 97.25 522.85C98.7887 524.679 100.697 526.162 102.85 527.2C105.271 528.341 107.924 528.906 110.6 528.85C112.767 528.955 114.935 528.667 117 528C118.432 527.499 119.732 526.678 120.8 525.6C121.68 524.677 122.301 523.539 122.6 522.3C122.895 521.106 123.047 519.88 123.05 518.65C122.968 516.467 122.035 514.403 120.45 512.9C118.468 510.859 116.291 509.017 113.95 507.4C111.35 505.567 108.55 503.683 105.55 501.75C102.608 499.865 99.801 497.776 97.1501 495.5C94.6496 493.386 92.4612 490.928 90.6501 488.2C88.9304 485.608 88.0249 482.561 88.0501 479.45C87.9675 476.557 88.6031 473.688 89.9001 471.1C91.0779 468.865 92.7546 466.932 94.8001 465.45C96.9063 463.955 99.2841 462.885 101.8 462.3C104.52 461.662 107.306 461.343 110.1 461.35C113.462 461.27 116.813 461.778 120 462.85C122.459 463.694 124.733 465.001 126.7 466.7C128.35 468.158 129.649 469.969 130.5 472C131.276 473.853 131.684 475.841 131.7 477.85C131.722 479.33 131.485 480.802 131 482.2C130.597 483.368 130.042 484.477 129.35 485.5C128.809 486.312 128.112 487.009 127.3 487.55C126.744 487.956 126.086 488.198 125.4 488.25C124.67 488.25 124.15 487.72 123.85 486.65C123.5 485.349 123.216 484.03 123 482.7C122.733 481.14 122.4 479.423 122 477.55C121.617 475.736 120.942 473.997 120 472.4C119.036 470.806 117.719 469.455 116.15 468.45C114.167 467.296 111.892 466.74 109.6 466.85C106.592 466.726 103.636 467.664 101.25 469.5C99.0767 471.273 97.9934 474.023 98 477.75C98.0681 480.116 99.0333 482.369 100.7 484.05C102.731 486.254 104.994 488.233 107.45 489.95C110.15 491.89 113.067 493.857 116.2 495.85C119.251 497.794 122.173 499.932 124.95 502.25C127.504 504.364 129.773 506.801 131.7 509.5C133.476 511.995 134.421 514.987 134.4 518.05C134.365 520.073 133.906 522.066 133.05 523.9C132.03 526.092 130.505 528.011 128.6 529.5C126.167 531.392 123.403 532.816 120.45 533.7C116.444 534.89 112.278 535.446 108.1 535.35C104.529 535.442 100.971 534.882 97.6 533.7C94.9927 532.762 92.5967 531.318 90.5501 529.45C88.913 527.948 87.6022 526.125 86.6991 524.095C85.796 522.066 85.3198 519.872 85.3001 517.65C85.2757 516.293 85.4785 514.941 85.9001 513.65C86.2445 512.595 86.7505 511.6 87.4001 510.7C87.9405 509.959 88.6197 509.331 89.4001 508.85C89.9968 508.459 90.6873 508.234 91.4001 508.2C91.6906 508.192 91.9798 508.243 92.25 508.35C92.3777 508.401 92.4855 508.492 92.5575 508.609C92.6296 508.726 92.662 508.863 92.6501 509Z" fill="white"/>
<path d="M156.65 529.26C156.882 529.883 157.166 530.485 157.5 531.06C157.734 531.477 158.019 531.864 158.35 532.21C158.62 532.48 158.75 532.68 158.75 532.81C158.76 532.878 158.754 532.947 158.733 533.013C158.711 533.078 158.675 533.137 158.626 533.186C158.577 533.235 158.518 533.271 158.453 533.293C158.387 533.314 158.318 533.32 158.25 533.31H153.45C152.318 533.318 151.196 533.101 150.149 532.672C149.102 532.242 148.151 531.609 147.351 530.809C146.551 530.009 145.918 529.057 145.488 528.01C145.059 526.963 144.842 525.842 144.85 524.71V471.21C144.868 470.376 144.733 469.545 144.45 468.76C144.218 468.137 143.934 467.535 143.6 466.96C143.355 466.534 143.07 466.133 142.75 465.76C142.48 465.46 142.35 465.25 142.35 465.11C142.35 464.97 142.52 464.68 142.85 464.61C143.18 464.54 143.85 464.38 144.7 464.11C145.989 463.707 147.258 463.24 148.5 462.71C150.703 461.745 152.826 460.608 154.85 459.31C155.008 459.241 155.178 459.207 155.35 459.21C155.472 459.193 155.596 459.205 155.713 459.245C155.83 459.284 155.936 459.35 156.023 459.437C156.11 459.524 156.176 459.63 156.215 459.747C156.255 459.864 156.266 459.988 156.25 460.11V526.81C156.231 527.644 156.367 528.475 156.65 529.26Z" fill="white"/>
<path d="M206.85 510.31C206.85 511.077 206.546 511.813 206.004 512.357C205.462 512.901 204.727 513.207 203.96 513.21H177.65C178.001 515.516 178.777 517.738 179.94 519.76C180.881 521.369 182.116 522.787 183.58 523.94C184.878 524.953 186.368 525.691 187.96 526.11C189.442 526.499 190.967 526.701 192.5 526.71C194.265 526.753 196.023 526.461 197.68 525.85C198.98 525.352 200.232 524.736 201.42 524.01C202.334 523.451 203.215 522.84 204.06 522.18C204.578 521.692 205.242 521.386 205.95 521.31C206.22 521.31 206.35 521.61 206.35 522.21C206.249 523.393 205.927 524.546 205.4 525.61C204.672 527.215 203.655 528.673 202.4 529.91C200.626 531.668 198.512 533.045 196.187 533.956C193.862 534.867 191.376 535.294 188.88 535.21C185.892 535.211 182.943 534.527 180.26 533.21C177.574 531.922 175.165 530.122 173.17 527.91C171.093 525.602 169.471 522.921 168.39 520.01C167.213 516.93 166.619 513.657 166.64 510.36C166.578 506.75 167.102 503.153 168.19 499.71C169.075 496.871 170.516 494.236 172.43 491.96C174.163 489.941 176.326 488.335 178.76 487.26C181.197 486.195 183.83 485.65 186.49 485.66C189.661 485.576 192.813 486.19 195.72 487.46C198.17 488.577 200.334 490.235 202.05 492.31C203.757 494.427 204.998 496.88 205.69 499.51C206.473 502.394 206.86 505.371 206.84 508.36L206.85 510.31ZM196.85 507.71C196.836 506.073 196.736 504.437 196.55 502.81C196.353 500.966 195.933 499.153 195.3 497.41C194.71 495.739 193.733 494.232 192.45 493.01C191.02 491.751 189.152 491.104 187.25 491.21C185.804 491.163 184.37 491.472 183.071 492.108C181.772 492.744 180.649 493.689 179.8 494.86C177.967 497.3 177.05 501.217 177.05 506.61V507.71H196.85Z" fill="white"/>
<path d="M255.25 510.31C255.25 511.077 254.946 511.813 254.404 512.357C253.862 512.901 253.127 513.207 252.36 513.21H226.05C226.401 515.516 227.177 517.738 228.34 519.76C229.281 521.369 230.516 522.787 231.98 523.94C233.278 524.953 234.768 525.691 236.36 526.11C237.842 526.499 239.368 526.7 240.9 526.71C242.665 526.753 244.423 526.461 246.08 525.85C247.38 525.352 248.632 524.736 249.82 524.01C250.734 523.451 251.616 522.84 252.46 522.18C252.979 521.692 253.642 521.386 254.35 521.31C254.62 521.31 254.75 521.61 254.75 522.21C254.649 523.393 254.327 524.546 253.8 525.61C253.072 527.215 252.055 528.673 250.8 529.91C249.026 531.668 246.912 533.045 244.587 533.956C242.262 534.867 239.776 535.294 237.28 535.21C234.292 535.211 231.343 534.527 228.66 533.21C225.974 531.922 223.565 530.122 221.57 527.91C219.496 525.599 217.875 522.919 216.79 520.01C215.613 516.93 215.019 513.657 215.04 510.36C214.978 506.75 215.502 503.153 216.59 499.71C217.475 496.871 218.916 494.236 220.83 491.96C222.563 489.941 224.726 488.335 227.16 487.26C229.597 486.195 232.23 485.65 234.89 485.66C238.061 485.576 241.213 486.19 244.12 487.46C246.57 488.577 248.734 490.235 250.45 492.31C252.157 494.427 253.398 496.88 254.09 499.51C254.873 502.394 255.26 505.371 255.24 508.36L255.25 510.31ZM245.25 507.71C245.236 506.073 245.136 504.437 244.95 502.81C244.753 500.966 244.333 499.153 243.7 497.41C243.11 495.739 242.133 494.232 240.85 493.01C239.42 491.751 237.552 491.104 235.65 491.21C234.205 491.163 232.77 491.472 231.471 492.108C230.172 492.744 229.049 493.689 228.2 494.86C226.373 497.3 225.457 501.217 225.45 506.61V507.71H245.25Z" fill="white"/>
<path d="M290.79 485.71C293.717 485.691 296.605 486.377 299.21 487.71C301.742 489.005 303.979 490.809 305.78 493.01C307.678 495.358 309.126 498.036 310.05 500.91C312.05 507.188 312.05 513.932 310.05 520.21C309.13 523.086 307.682 525.765 305.78 528.11C303.981 530.313 301.744 532.118 299.21 533.41C296.6 534.726 293.712 535.395 290.79 535.36C288.357 535.44 285.941 534.937 283.742 533.893C281.544 532.849 279.626 531.295 278.15 529.36V551.26C278.131 552.094 278.267 552.925 278.55 553.71C278.782 554.333 279.066 554.935 279.4 555.51C279.645 555.936 279.93 556.337 280.25 556.71C280.419 556.865 280.555 557.052 280.65 557.26C280.66 557.328 280.654 557.397 280.633 557.463C280.611 557.528 280.574 557.587 280.526 557.636C280.477 557.685 280.418 557.721 280.353 557.743C280.287 557.764 280.218 557.77 280.15 557.76H266.85V497.76C266.868 496.926 266.733 496.095 266.45 495.31C266.225 494.7 265.94 494.114 265.6 493.56C265.346 493.156 265.062 492.772 264.75 492.41C264.48 492.11 264.35 491.9 264.35 491.76C264.349 491.636 264.395 491.515 264.478 491.423C264.562 491.331 264.676 491.272 264.8 491.26C265.1 491.2 265.7 491.03 266.6 490.76C267.5 490.49 268.75 490.03 270.37 489.36C272.581 488.386 274.717 487.25 276.76 485.96C276.916 485.87 277.085 485.802 277.26 485.76C277.85 485.76 278.15 486.1 278.15 486.76V491.76C279.585 489.926 281.4 488.425 283.47 487.36C285.743 486.233 288.253 485.667 290.79 485.71ZM289.2 529.81C290.733 529.786 292.216 529.259 293.42 528.31C294.867 527.187 296.062 525.773 296.93 524.16C298.006 522.229 298.804 520.155 299.3 518C300.433 513.064 300.433 507.936 299.3 503C298.805 500.864 298.007 498.81 296.93 496.9C296.041 495.302 294.849 493.892 293.42 492.75C292.228 491.773 290.741 491.226 289.2 491.2C286.193 491.2 283.613 492.8 281.46 496C279.307 499.2 278.237 504.033 278.25 510.5C278.25 516.767 279.32 521.55 281.46 524.85C283.6 528.15 286.18 529.803 289.2 529.81Z" fill="white"/>
<path d="M312.3 466.81C311.96 466.215 311.576 465.647 311.15 465.11C310.918 464.811 310.649 464.542 310.35 464.31C310.26 464.261 310.185 464.188 310.133 464.1C310.08 464.013 310.051 463.912 310.05 463.81C310.04 463.742 310.046 463.673 310.067 463.607C310.089 463.542 310.125 463.483 310.174 463.434C310.223 463.385 310.282 463.349 310.347 463.327C310.413 463.306 310.482 463.3 310.55 463.31H327.05C327.32 463.31 327.45 463.48 327.45 463.81C327.441 463.923 327.405 464.033 327.344 464.129C327.283 464.225 327.199 464.304 327.1 464.36C326.836 464.561 326.586 464.778 326.35 465.01C326.05 465.321 325.797 465.675 325.6 466.06C325.345 466.607 325.225 467.207 325.25 467.81C325.251 468.245 325.284 468.68 325.35 469.11C325.442 469.685 325.576 470.254 325.75 470.81L340.65 519.31L350.95 486.21L346 470C345.712 468.887 345.292 467.813 344.75 466.8C344.409 466.194 344.007 465.624 343.55 465.1C343.293 464.806 343.009 464.538 342.7 464.3C342.61 464.251 342.535 464.178 342.483 464.09C342.43 464.003 342.401 463.902 342.4 463.8C342.39 463.732 342.396 463.663 342.417 463.597C342.439 463.532 342.475 463.473 342.524 463.424C342.573 463.375 342.632 463.339 342.697 463.317C342.763 463.296 342.832 463.29 342.9 463.3H359.4C359.468 463.29 359.537 463.296 359.603 463.317C359.668 463.339 359.727 463.375 359.776 463.424C359.824 463.473 359.861 463.532 359.883 463.597C359.904 463.663 359.91 463.732 359.9 463.8C359.891 463.913 359.855 464.023 359.794 464.119C359.733 464.215 359.649 464.294 359.55 464.35C359.32 464.52 359.05 464.74 358.75 465C358.424 465.301 358.154 465.656 357.95 466.05C357.695 466.597 357.575 467.197 357.6 467.8C357.604 468.237 357.654 468.673 357.75 469.1C357.85 469.57 357.97 470.1 358.1 470.8L373.1 519.3L388.1 470.7C388.282 470.231 388.416 469.746 388.5 469.25C388.564 468.87 388.598 468.485 388.6 468.1C388.611 467.498 388.492 466.901 388.25 466.35C388.051 465.915 387.817 465.497 387.55 465.1C387.35 464.806 387.115 464.537 386.85 464.3C386.62 464.1 386.5 463.94 386.5 463.8C386.49 463.732 386.496 463.663 386.517 463.597C386.539 463.532 386.575 463.473 386.624 463.424C386.673 463.375 386.732 463.339 386.797 463.317C386.863 463.296 386.932 463.29 387 463.3H396.9C396.968 463.29 397.037 463.296 397.103 463.317C397.168 463.339 397.227 463.375 397.276 463.424C397.324 463.473 397.361 463.532 397.383 463.597C397.404 463.663 397.41 463.732 397.4 463.8C397.399 463.902 397.37 464.003 397.317 464.09C397.265 464.178 397.19 464.251 397.1 464.3C396.799 464.529 396.515 464.78 396.25 465.05C395.784 465.549 395.382 466.103 395.05 466.7C394.508 467.691 394.057 468.728 393.7 469.8L374.9 530.8C374.72 531.551 374.28 532.214 373.657 532.672C373.035 533.129 372.271 533.352 371.5 533.3H368C367.243 533.34 366.497 533.111 365.893 532.653C365.289 532.196 364.867 531.539 364.7 530.8L353.6 494.8L342.5 530.8C342.307 531.528 341.864 532.165 341.25 532.6C340.662 533.053 339.942 533.299 339.2 533.3H335.7C334.975 533.288 334.274 533.042 333.7 532.6C333.086 532.165 332.643 531.528 332.45 530.8L313.65 470C313.304 468.896 312.851 467.827 312.3 466.81Z" fill="white"/>
<path d="M417.05 526.91C417.035 527.742 417.164 528.571 417.43 529.36C417.653 529.982 417.927 530.584 418.25 531.16C418.475 531.573 418.747 531.959 419.06 532.31C419.32 532.583 419.45 532.783 419.45 532.91C419.46 532.978 419.454 533.047 419.433 533.113C419.411 533.178 419.375 533.237 419.326 533.286C419.277 533.335 419.218 533.371 419.153 533.393C419.087 533.414 419.018 533.42 418.95 533.41H403.65C403.582 533.42 403.513 533.414 403.447 533.393C403.382 533.371 403.323 533.335 403.274 533.286C403.226 533.237 403.189 533.178 403.167 533.113C403.146 533.047 403.14 532.978 403.15 532.91C403.15 532.78 403.28 532.58 403.55 532.31C403.877 531.961 404.163 531.575 404.4 531.16C404.734 530.585 405.018 529.983 405.25 529.36C405.533 528.575 405.669 527.744 405.65 526.91V497.91C405.668 497.076 405.533 496.245 405.25 495.46C405.018 494.837 404.734 494.235 404.4 493.66C404.151 493.237 403.867 492.835 403.55 492.46C403.28 492.16 403.15 491.95 403.15 491.81C403.149 491.686 403.195 491.565 403.278 491.473C403.362 491.381 403.476 491.322 403.6 491.31C403.9 491.25 404.5 491.08 405.4 490.81C406.3 490.54 407.56 490.08 409.2 489.41C411.43 488.434 413.585 487.298 415.65 486.01C415.808 485.941 415.978 485.907 416.15 485.91C416.272 485.893 416.396 485.905 416.513 485.945C416.63 485.984 416.736 486.05 416.823 486.137C416.91 486.224 416.976 486.33 417.015 486.447C417.055 486.564 417.067 486.688 417.05 486.81V526.91ZM411.3 478.71C410.295 478.729 409.296 478.544 408.364 478.166C407.433 477.788 406.588 477.224 405.88 476.51C405.155 475.813 404.582 474.974 404.198 474.044C403.814 473.115 403.627 472.115 403.65 471.11C403.632 470.098 403.82 469.092 404.204 468.155C404.587 467.218 405.158 466.369 405.88 465.66C406.59 464.947 407.434 464.381 408.363 463.995C409.292 463.608 410.289 463.41 411.295 463.41C412.301 463.41 413.298 463.608 414.227 463.995C415.156 464.381 416 464.947 416.71 465.66C417.434 466.369 418.006 467.217 418.391 468.154C418.776 469.091 418.966 470.097 418.95 471.11C418.971 472.116 418.782 473.116 418.397 474.045C418.011 474.975 417.437 475.814 416.71 476.51C416.004 477.224 415.161 477.787 414.231 478.165C413.301 478.544 412.304 478.729 411.3 478.71Z" fill="white"/>
<path d="M441.85 496.21C441.9 496.877 442.086 497.527 442.395 498.12C442.705 498.713 443.132 499.237 443.65 499.66C445.044 500.986 446.55 502.191 448.15 503.26C449.95 504.5 451.9 505.8 454 507.16C456.058 508.496 458.013 509.984 459.85 511.61C461.579 513.131 463.093 514.88 464.35 516.81C465.534 518.623 466.16 520.744 466.15 522.91C466.179 524.724 465.733 526.513 464.856 528.101C463.978 529.689 462.701 531.019 461.15 531.96C457.817 534.2 453.35 535.317 447.75 535.31C444.702 535.385 441.658 535.048 438.7 534.31C436.53 533.758 434.468 532.845 432.6 531.61C431.17 530.665 430.001 529.375 429.2 527.86C428.525 526.562 428.165 525.123 428.15 523.66C428.145 522.671 428.315 521.69 428.65 520.76C428.947 519.897 429.35 519.074 429.85 518.31C430.249 517.676 430.757 517.118 431.35 516.66C431.712 516.332 432.166 516.122 432.65 516.06C432.938 516.035 433.225 516.112 433.462 516.276C433.699 516.44 433.872 516.682 433.95 516.96C434.39 518.224 434.908 519.46 435.5 520.66C436.24 522.195 437.182 523.624 438.3 524.91C439.538 526.339 441.03 527.525 442.7 528.41C444.626 529.416 446.777 529.915 448.95 529.86C450.314 529.865 451.657 529.52 452.85 528.86C453.455 528.543 453.955 528.058 454.292 527.464C454.629 526.87 454.788 526.192 454.75 525.51C454.798 523.646 454.158 521.83 452.95 520.41C451.653 518.926 450.155 517.63 448.5 516.56C446.733 515.4 444.8 514.25 442.7 513.11C440.649 512.013 438.707 510.724 436.9 509.26C435.141 507.842 433.636 506.134 432.45 504.21C431.193 502.06 430.569 499.599 430.65 497.11C430.611 495.447 431.012 493.804 431.813 492.346C432.613 490.888 433.785 489.668 435.21 488.81C438.25 486.81 442.647 485.81 448.4 485.81C451.004 485.75 453.598 486.139 456.07 486.96C457.952 487.593 459.679 488.615 461.14 489.96C462.35 491.107 463.292 492.507 463.9 494.06C464.446 495.446 464.734 496.92 464.75 498.41C464.75 499.167 464.666 499.922 464.5 500.66C464.341 501.406 464.085 502.129 463.74 502.81C463.457 503.409 463.068 503.951 462.59 504.41C462.231 504.777 461.744 504.992 461.23 505.01C460.842 505.014 460.464 504.888 460.156 504.652C459.849 504.417 459.628 504.085 459.53 503.71C459.26 502.78 458.84 501.6 458.27 500.16C457.7 498.679 456.937 497.281 456 496C455.04 494.713 453.886 493.583 452.58 492.65C451.215 491.699 449.583 491.209 447.92 491.25C445.773 491.25 444.233 491.767 443.3 492.8C442.398 493.709 441.879 494.93 441.85 496.21Z" fill="white"/>
<path d="M514.65 510.31C514.655 510.692 514.582 511.07 514.436 511.422C514.29 511.775 514.073 512.094 513.8 512.36C513.541 512.629 513.23 512.842 512.886 512.989C512.543 513.135 512.173 513.21 511.8 513.21H485.45C485.8 515.516 486.577 517.738 487.74 519.76C488.678 521.371 489.913 522.79 491.38 523.94C492.678 524.953 494.168 525.691 495.76 526.11C497.242 526.5 498.767 526.702 500.3 526.71C502.065 526.753 503.823 526.461 505.48 525.85C506.779 525.35 508.031 524.734 509.22 524.01C510.131 523.446 511.012 522.835 511.86 522.18C512.378 521.692 513.042 521.386 513.75 521.31C514.02 521.31 514.15 521.61 514.15 522.21C514.049 523.393 513.727 524.546 513.2 525.61C512.472 527.215 511.455 528.673 510.2 529.91C508.426 531.668 506.312 533.045 503.987 533.956C501.662 534.867 499.176 535.294 496.68 535.21C493.688 535.21 490.736 534.526 488.05 533.21C485.387 531.943 482.993 530.174 481 528C478.923 525.69 477.298 523.01 476.21 520.1C475.041 517.018 474.451 513.746 474.47 510.45C474.403 506.828 474.919 503.218 476 499.76C476.889 496.923 478.33 494.289 480.24 492.01C481.98 489.994 484.145 488.388 486.58 487.31C489.017 486.243 491.65 485.698 494.31 485.71C497.481 485.626 500.633 486.24 503.54 487.51C505.99 488.627 508.154 490.285 509.87 492.36C511.57 494.481 512.809 496.933 513.51 499.56C514.293 502.444 514.68 505.421 514.66 508.41L514.65 510.31ZM504.65 507.71C504.636 506.073 504.536 504.437 504.35 502.81C504.152 500.966 503.733 499.153 503.1 497.41C502.502 495.743 501.527 494.237 500.25 493.01C498.82 491.751 496.952 491.104 495.05 491.21C493.604 491.162 492.169 491.469 490.87 492.106C489.571 492.742 488.448 493.688 487.6 494.86C485.76 497.3 484.843 501.217 484.85 506.61V507.71H504.65Z" fill="white"/>
</svg>
